<svg width="226" height="226" fill="none" xmlns="http://www.w3.org/2000/svg"><path fill-rule="evenodd" clip-rule="evenodd" d="M113 226C50.592 226 0 175.408 0 113S50.592 0 113 0s113 50.592 113 113-50.592 113-113 113zm0-10c56.885 0 103-46.115 103-103S169.885 10 113 10 10 56.115 10 113s46.115 103 103 103z" fill="#EDF0F4"/><path fill-rule="evenodd" clip-rule="evenodd" d="M113 0a5 5 0 000 10c56.885 0 103 46.115 103 103s-46.115 103-103 103c-53.803 0-98.433-41.413-102.672-94.717a5 5 0 10-9.969.792C5.011 180.568 53.972 226 113 226c62.408 0 113-50.592 113-113S175.408 0 113 0z" fill="#826AF9"/><path fill-rule="evenodd" clip-rule="evenodd" d="M113 210c-53.572 0-97-43.428-97-97s43.428-97 97-97 97 43.428 97 97-43.428 97-97 97zm0-10c48.049 0 87-38.951 87-87s-38.951-87-87-87-87 38.951-87 87 38.951 87 87 87z" fill="#EDF0F4"/><path fill-rule="evenodd" clip-rule="evenodd" d="M113 16a5 5 0 000 10c48.049 0 87 38.951 87 87s-38.951 87-87 87-87-38.951-87-87c0-18.426 5.736-35.976 16.24-50.63a5 5 0 00-8.127-5.826C22.401 72.883 16 92.467 16 113c0 53.572 43.428 97 97 97s97-43.428 97-97-43.428-97-97-97z" fill="#9E86FF"/><path fill-rule="evenodd" clip-rule="evenodd" d="M113 195c-45.287 0-82-36.713-82-82s36.713-82 82-82 82 36.713 82 82-36.713 82-82 82zm0-10c39.765 0 72-32.235 72-72 0-39.764-32.235-72-72-72-39.764 0-72 32.236-72 72 0 39.765 32.236 72 72 72z" fill="#EDF0F4"/><path fill-rule="evenodd" clip-rule="evenodd" d="M113 31a5 5 0 000 10c39.765 0 72 32.236 72 72 0 39.765-32.235 72-72 72-39.764 0-72-32.235-72-72 0-25.035 12.874-47.855 33.668-60.96a5 5 0 10-5.331-8.46C45.667 58.497 31 84.494 31 113c0 45.287 36.713 82 82 82s82-36.713 82-82-36.713-82-82-82z" fill="#F7D2FF"/><path d="M83.213 104.26c0-.534-.15-.957-.449-1.27-.293-.319-.794-.612-1.504-.879s-1.322-.53-1.836-.791a6.17 6.17 0 01-1.328-.908 3.8 3.8 0 01-.86-1.21c-.201-.463-.302-1.013-.302-1.651 0-1.1.351-2.002 1.055-2.705.703-.703 1.637-1.114 2.802-1.23v-2.09h1.563v2.118c1.152.163 2.054.645 2.705 1.446.65.794.976 1.826.976 3.096h-2.822c0-.782-.163-1.364-.488-1.749-.32-.39-.749-.585-1.29-.585-.533 0-.946.153-1.24.459-.292.299-.439.716-.439 1.25 0 .494.143.891.43 1.191.286.3.817.605 1.592.918.78.312 1.422.609 1.923.889.502.273.925.586 1.27.937.345.345.609.742.791 1.192.182.442.273.96.273 1.552 0 1.107-.345 2.005-1.035 2.696-.69.69-1.64 1.097-2.851 1.22v1.944h-1.553v-1.934c-1.335-.143-2.37-.615-3.106-1.416-.729-.807-1.093-1.878-1.093-3.213h2.822c0 .775.182 1.371.547 1.787.371.41.902.615 1.592.615.573 0 1.025-.149 1.357-.449.332-.306.498-.716.498-1.23zm14.405-8.897L92.119 108h-2.978l5.508-11.934h-7.07v-2.285h10.039v1.582zm4.687 4.278h1.504c.716 0 1.247-.18 1.592-.538.345-.358.517-.833.517-1.425 0-.573-.172-1.02-.517-1.338-.339-.32-.808-.479-1.407-.479-.54 0-.992.15-1.357.45a1.406 1.406 0 00-.547 1.152h-2.822c0-.742.198-1.406.596-1.992.403-.593.963-1.055 1.679-1.387a5.64 5.64 0 012.383-.498c1.504 0 2.682.361 3.535 1.084.853.716 1.28 1.706 1.28 2.969 0 .65-.199 1.25-.596 1.797a3.867 3.867 0 01-1.563 1.259c.801.287 1.397.716 1.787 1.289.398.573.596 1.25.596 2.032 0 1.263-.462 2.275-1.387 3.037-.918.761-2.135 1.142-3.652 1.142-1.419 0-2.581-.374-3.486-1.123-.899-.748-1.348-1.738-1.348-2.968h2.822c0 .533.199.97.596 1.308.404.339.898.508 1.484.508.671 0 1.195-.176 1.573-.527.384-.358.576-.831.576-1.416 0-1.42-.781-2.129-2.344-2.129h-1.494v-2.207zm9.463 11.923l-1.475-.771.352-.635c.436-.794.661-1.585.674-2.373v-2.187h2.382l-.009 1.953c-.007.722-.189 1.452-.547 2.187-.358.736-.817 1.345-1.377 1.826zm10.635-9.248c-.736.723-1.595 1.084-2.578 1.084-1.257 0-2.263-.429-3.018-1.289-.755-.866-1.133-2.031-1.133-3.496 0-.93.202-1.784.606-2.558a4.463 4.463 0 011.709-1.817c.729-.436 1.549-.654 2.461-.654.937 0 1.77.234 2.5.703.729.469 1.295 1.143 1.699 2.022.403.878.608 1.884.615 3.017v1.045c0 2.37-.589 4.232-1.768 5.586-1.178 1.354-2.848 2.077-5.009 2.168l-.694.01v-2.354l.625-.01c2.455-.11 3.783-1.263 3.985-3.457zm-1.885-1.074c.456 0 .846-.117 1.172-.351.332-.235.582-.518.752-.85v-1.162c0-.957-.183-1.7-.547-2.227-.365-.527-.853-.79-1.465-.79-.566 0-1.032.26-1.397.78-.364.515-.546 1.163-.546 1.944 0 .775.175 1.413.527 1.914.358.495.859.742 1.504.742zm13.369 1.074c-.736.723-1.595 1.084-2.578 1.084-1.257 0-2.262-.429-3.018-1.289-.755-.866-1.133-2.031-1.133-3.496 0-.93.202-1.784.606-2.558a4.47 4.47 0 011.709-1.817c.729-.436 1.549-.654 2.461-.654.937 0 1.771.234 2.5.703.729.469 1.295 1.143 1.699 2.022.404.878.609 1.884.615 3.017v1.045c0 2.37-.589 4.232-1.767 5.586-1.179 1.354-2.849 2.077-5.01 2.168l-.693.01v-2.354l.625-.01c2.454-.11 3.782-1.263 3.984-3.457zm-1.885-1.074c.456 0 .847-.117 1.172-.351.332-.235.583-.518.752-.85v-1.162c0-.957-.182-1.7-.547-2.227-.364-.527-.853-.79-1.465-.79-.566 0-1.032.26-1.396.78-.365.515-.547 1.163-.547 1.944 0 .775.176 1.413.527 1.914.358.495.86.742 1.504.742zm15.117 1.406h1.612v2.276h-1.612V108h-2.822v-3.076h-5.83l-.127-1.778 5.928-9.365h2.851v8.867zm-5.966 0h3.144v-5.02l-.185.323-2.959 4.697z" fill="#505D6F"/><path d="M89.745 129.604h-4.177V134h-1.312v-9.953h6.166v1.08h-4.854v3.404h4.177v1.073zM96.13 134c-.073-.146-.132-.406-.178-.779-.588.61-1.29.916-2.105.916-.73 0-1.329-.205-1.798-.616a2.014 2.014 0 01-.697-1.572c0-.77.291-1.367.875-1.791.587-.428 1.412-.642 2.474-.642h1.23v-.581c0-.442-.132-.793-.396-1.053-.264-.264-.654-.397-1.169-.397-.451 0-.83.114-1.135.342-.305.228-.458.504-.458.827h-1.271c0-.369.13-.724.39-1.066a2.7 2.7 0 011.066-.82 3.604 3.604 0 011.483-.301c.853 0 1.52.214 2.003.642.483.424.734 1.01.752 1.757v3.405c0 .679.087 1.219.26 1.62V134H96.13zm-2.099-.964a2.22 2.22 0 001.128-.307c.356-.206.613-.472.773-.8v-1.518h-.992c-1.549 0-2.324.454-2.324 1.36 0 .397.132.707.397.93.264.223.603.335 1.018.335zm8.115.068c.451 0 .845-.136 1.182-.41.337-.273.524-.615.561-1.025h1.196a2.295 2.295 0 01-.438 1.21 2.861 2.861 0 01-1.08.916 3.08 3.08 0 01-1.421.342c-1.008 0-1.81-.335-2.407-1.005-.592-.675-.888-1.595-.888-2.762v-.212c0-.72.132-1.36.396-1.921.264-.56.643-.995 1.135-1.305.497-.31 1.082-.465 1.757-.465.829 0 1.517.248 2.064.745.552.497.846 1.142.882 1.934h-1.196c-.037-.478-.219-.87-.547-1.175-.324-.31-.725-.465-1.203-.465-.643 0-1.142.232-1.497.697-.351.46-.527 1.128-.527 2.003v.239c0 .853.176 1.509.527 1.969.351.46.852.69 1.504.69zm7.43 1.033c-1.002 0-1.818-.328-2.447-.985-.629-.66-.943-1.542-.943-2.645v-.233c0-.733.139-1.387.417-1.962a3.286 3.286 0 011.175-1.353 2.96 2.96 0 011.641-.492c.962 0 1.709.317 2.242.95.533.633.8 1.54.8 2.721v.526h-5.011c.018.729.23 1.319.636 1.771.41.446.93.669 1.559.669.446 0 .824-.091 1.134-.273.31-.182.581-.424.814-.725l.772.602c-.62.952-1.549 1.429-2.789 1.429zm-.157-6.631c-.51 0-.939.187-1.285.56-.347.37-.561.889-.643 1.559h3.705v-.096c-.036-.642-.209-1.139-.519-1.49-.31-.355-.729-.533-1.258-.533zm10.773 2.878c0 1.13-.259 2.039-.779 2.727-.519.684-1.217 1.026-2.092 1.026-.934 0-1.656-.331-2.167-.991l-.061.854h-1.162v-10.5h1.264v3.917c.511-.633 1.215-.95 2.113-.95.897 0 1.602.339 2.112 1.018.515.679.772 1.609.772 2.789v.11zm-1.264-.144c0-.861-.167-1.526-.499-1.996-.333-.469-.811-.704-1.436-.704-.834 0-1.433.387-1.798 1.162v3.199c.388.775.992 1.162 1.812 1.162.606 0 1.078-.234 1.415-.704.337-.469.506-1.175.506-2.119zm2.529-.007c0-.724.141-1.376.424-1.955.287-.578.683-1.025 1.189-1.34.511-.314 1.092-.471 1.743-.471 1.008 0 1.821.348 2.441 1.046.624.697.936 1.624.936 2.782v.089c0 .72-.139 1.367-.417 1.941a3.109 3.109 0 01-1.182 1.333c-.511.319-1.098.479-1.764.479-1.002 0-1.816-.349-2.44-1.046-.62-.697-.93-1.62-.93-2.769v-.089zm1.272.151c0 .82.189 1.479.567 1.975.383.497.893.745 1.531.745.643 0 1.153-.25 1.531-.751.379-.506.568-1.213.568-2.12 0-.811-.194-1.467-.581-1.968-.383-.506-.894-.759-1.532-.759-.624 0-1.127.248-1.51.745s-.574 1.208-.574 2.133zm6.712-.151c0-.724.142-1.376.424-1.955a3.226 3.226 0 011.19-1.34c.51-.314 1.091-.471 1.743-.471 1.007 0 1.82.348 2.44 1.046.625.697.937 1.624.937 2.782v.089c0 .72-.139 1.367-.417 1.941a3.117 3.117 0 01-1.183 1.333c-.51.319-1.098.479-1.763.479-1.003 0-1.817-.349-2.441-1.046-.62-.697-.93-1.62-.93-2.769v-.089zm1.272.151c0 .82.189 1.479.567 1.975.383.497.894.745 1.532.745.642 0 1.153-.25 1.531-.751.378-.506.567-1.213.567-2.12 0-.811-.194-1.467-.581-1.968-.383-.506-.893-.759-1.531-.759-.624 0-1.128.248-1.511.745s-.574 1.208-.574 2.133zm9.112.191l-.793.827V134h-1.264v-10.5h1.264v6.351l.677-.814 2.304-2.433h1.538l-2.878 3.089 3.213 4.307h-1.484l-2.577-3.425z" fill="#9AA1A9"/></svg>